<svg xmlns="http://www.w3.org/2000/svg" version="1.1" xmlns:xlink="http://www.w3.org/1999/xlink" xmlns:svgjs="http://svgjs.dev/svgjs" width="500" height="500"><svg xmlns="http://www.w3.org/2000/svg" xmlns:xlink="http://www.w3.org/1999/xlink" width="500" zoomAndPan="magnify" viewBox="0 0 375 374.999991" height="500" preserveAspectRatio="xMidYMid meet" version="1.0"><defs><clipPath id="SvgjsClipPath1280"><path d="M 8 97 L 253 97 L 253 339 L 8 339 Z M 8 97 " clip-rule="nonzero"></path></clipPath><clipPath id="SvgjsClipPath1279"><path d="M 199.28125 60.820312 L 272.578125 199.121094 L 9.148438 338.734375 L -64.148438 200.433594 Z M 199.28125 60.820312 " clip-rule="nonzero"></path></clipPath><clipPath id="SvgjsClipPath1278"><path d="M 199.28125 60.820312 L 272.578125 199.121094 L 9.148438 338.734375 L -64.148438 200.433594 Z M 199.28125 60.820312 " clip-rule="nonzero"></path></clipPath><clipPath id="SvgjsClipPath1277"><path d="M 127 36 L 347 36 L 347 300 L 127 300 Z M 127 36 " clip-rule="nonzero"></path></clipPath><clipPath id="SvgjsClipPath1276"><path d="M 200.042969 339.835938 L 106.585938 214.273438 L 345.75 36.265625 L 439.207031 161.824219 Z M 200.042969 339.835938 " clip-rule="nonzero"></path></clipPath><clipPath id="SvgjsClipPath1275"><path d="M 200.042969 339.835938 L 106.585938 214.273438 L 345.75 36.265625 L 439.207031 161.824219 Z M 200.042969 339.835938 " clip-rule="nonzero"></path></clipPath></defs><rect x="-37.5" width="450" fill="#ffffff" y="-37.499999" height="449.999989" fill-opacity="1"></rect><rect x="-37.5" width="450" fill="#ffffff" y="-37.499999" height="449.999989" fill-opacity="1"></rect><g clip-path="url(#901bba1917)"><g clip-path="url(#26f67f4563)"><g clip-path="url(#3136103419)"><path fill="#0097b2" d="M 209.695312 161.0625 C 210.675781 162.523438 211.539062 163.992188 212.320312 165.460938 C 216.546875 173.4375 217.886719 181.085938 217.613281 188.0625 C 217.613281 188.0625 217.617188 188.160156 217.5625 188.335938 C 216.464844 191.933594 216.683594 196.058594 215.558594 199.769531 C 211.847656 211.84375 208.660156 224.089844 204.476562 236.023438 L 247.886719 213.015625 C 254.800781 192.90625 255.769531 167.363281 238.945312 141.734375 C 221.75 115.675781 196.089844 99.605469 168.59375 97.621094 C 137.703125 95.417969 106.238281 110.175781 77.550781 140.386719 C 54.1875 164.902344 42.871094 196.355469 34.859375 223.941406 C 26.984375 251.066406 18.132812 283.339844 12.359375 316.570312 C 11.042969 324.101562 9.851562 331.820312 8.800781 339.5 L 8.765625 339.75 L 47.433594 319.257812 C 52.941406 288.816406 61.113281 258.996094 68.511719 233.6875 C 75.316406 210.171875 84.75 183.582031 102.878906 164.503906 C 117.707031 148.921875 140.707031 130.730469 166.097656 132.550781 C 182.632812 133.734375 198.546875 144.128906 209.695312 161.0625 " fill-opacity="1" fill-rule="nonzero"></path></g></g></g><g clip-path="url(#3b00da5f70)"><g clip-path="url(#839bb14e2c)"><g clip-path="url(#6cd782b6aa)"><path fill="#0097b2" d="M 174.523438 242.339844 C 173.332031 241.042969 172.253906 239.722656 171.261719 238.390625 C 165.871094 231.148438 163.386719 223.789062 162.597656 216.851562 C 162.597656 216.851562 162.574219 216.757812 162.601562 216.578125 C 163.144531 212.851562 162.300781 208.808594 162.847656 204.96875 C 164.679688 192.472656 165.96875 179.882812 168.292969 167.453125 L 128.882812 196.785156 C 125.101562 217.714844 128.027344 243.109375 148.546875 265.886719 C 169.5 289.027344 197.304688 301.015625 224.785156 298.796875 C 255.648438 296.285156 284.507812 276.921875 308.277344 242.703125 C 327.644531 214.917969 334.046875 182.113281 337.777344 153.632812 C 341.445312 125.625 345.289062 92.382812 345.949219 58.65625 C 346.105469 51.015625 346.109375 43.207031 345.980469 35.457031 L 345.976562 35.203125 L 310.871094 61.332031 C 310.050781 92.257812 306.507812 122.972656 303.035156 149.109375 C 299.878906 173.386719 294.597656 201.101562 279.578125 222.710938 C 267.289062 240.367188 247.316406 261.835938 221.945312 263.898438 C 205.421875 265.238281 188.113281 257.378906 174.523438 242.339844 " fill-opacity="1" fill-rule="nonzero"></path></g></g></g></svg><style>@media (prefers-color-scheme: light) { :root { filter: none; } }
@media (prefers-color-scheme: dark) { :root { filter: none; } }
</style></svg>