<svg xmlns="http://www.w3.org/2000/svg" xmlns:xlink="http://www.w3.org/1999/xlink" width="500" zoomAndPan="magnify" viewBox="0 0 375 374.999991" height="500" preserveAspectRatio="xMidYMid meet" version="1.0"><defs><clipPath id="3d14a84738"><path d="M 79 132 L 227 132 L 227 280 L 79 280 Z M 79 132 " clip-rule="nonzero"/></clipPath><clipPath id="de0ba5b944"><path d="M 194.640625 110.785156 L 239.246094 194.945312 L 79.539062 279.589844 L 34.933594 195.429688 Z M 194.640625 110.785156 " clip-rule="nonzero"/></clipPath><clipPath id="40a1bbcfaf"><path d="M 194.640625 110.785156 L 239.246094 194.945312 L 79.539062 279.589844 L 34.933594 195.429688 Z M 194.640625 110.785156 " clip-rule="nonzero"/></clipPath><clipPath id="8ecfc6529b"><path d="M 151 95 L 284 95 L 284 256 L 151 256 Z M 151 95 " clip-rule="nonzero"/></clipPath><clipPath id="9bf56a06dd"><path d="M 195.085938 279.773438 L 138.214844 203.363281 L 283.210938 95.445312 L 340.082031 171.851562 Z M 195.085938 279.773438 " clip-rule="nonzero"/></clipPath><clipPath id="bdd56176e5"><path d="M 195.085938 279.773438 L 138.214844 203.363281 L 283.210938 95.445312 L 340.082031 171.851562 Z M 195.085938 279.773438 " clip-rule="nonzero"/></clipPath></defs><rect x="-37.5" width="450" fill="#ffffff" y="-37.499999" height="449.999989" fill-opacity="1"/><rect x="-37.5" width="450" fill="#ffffff" y="-37.499999" height="449.999989" fill-opacity="1"/><g clip-path="url(#3d14a84738)"><g clip-path="url(#de0ba5b944)"><g clip-path="url(#40a1bbcfaf)"><path fill="#0097b2" d="M 200.945312 171.496094 C 201.539062 172.378906 202.0625 173.269531 202.535156 174.160156 C 205.09375 178.992188 205.90625 183.625 205.742188 187.847656 C 205.742188 187.847656 205.746094 187.910156 205.710938 188.015625 C 205.046875 190.195312 205.179688 192.691406 204.496094 194.941406 C 202.25 202.253906 200.320312 209.671875 197.785156 216.898438 L 224.078125 202.964844 C 228.265625 190.78125 228.851562 175.3125 218.664062 159.789062 C 208.246094 144.003906 192.707031 134.269531 176.050781 133.070312 C 157.339844 131.734375 138.28125 140.671875 120.90625 158.96875 C 106.753906 173.820312 99.902344 192.871094 95.046875 209.582031 C 90.277344 226.011719 84.914062 245.558594 81.417969 265.6875 C 80.621094 270.246094 79.898438 274.921875 79.265625 279.574219 L 79.242188 279.726562 L 102.664062 267.3125 C 106 248.875 110.949219 230.8125 115.429688 215.484375 C 119.554688 201.242188 125.265625 185.136719 136.246094 173.582031 C 145.226562 164.140625 159.160156 153.125 174.539062 154.222656 C 184.554688 154.941406 194.191406 161.238281 200.945312 171.496094 " fill-opacity="1" fill-rule="nonzero"/></g></g></g><g clip-path="url(#8ecfc6529b)"><g clip-path="url(#9bf56a06dd)"><g clip-path="url(#bdd56176e5)"><path fill="#0097b2" d="M 179.632812 220.726562 C 178.910156 219.941406 178.257812 219.140625 177.65625 218.332031 C 174.390625 213.945312 172.886719 209.492188 172.40625 205.289062 C 172.40625 205.289062 172.394531 205.230469 172.410156 205.121094 C 172.738281 202.867188 172.226562 200.417969 172.558594 198.089844 C 173.667969 190.519531 174.449219 182.894531 175.859375 175.367188 L 151.988281 193.132812 C 149.699219 205.8125 151.46875 221.191406 163.898438 234.988281 C 176.589844 249.003906 193.429688 256.265625 210.074219 254.921875 C 228.769531 253.402344 246.25 241.671875 260.644531 220.945312 C 272.378906 204.117188 276.257812 184.246094 278.515625 166.996094 C 280.734375 150.03125 283.066406 129.894531 283.464844 109.46875 C 283.558594 104.839844 283.5625 100.109375 283.484375 95.414062 L 283.484375 95.261719 L 262.21875 111.089844 C 261.722656 129.820312 259.574219 148.425781 257.472656 164.253906 C 255.5625 178.960938 252.359375 195.746094 243.261719 208.835938 C 235.820312 219.53125 223.722656 232.535156 208.355469 233.785156 C 198.347656 234.597656 187.863281 229.835938 179.632812 220.726562 " fill-opacity="1" fill-rule="nonzero"/></g></g></g></svg>