<?xml version="1.0" encoding="utf-8"?>
<svg id="svg" version="1.1" style="display: block;" viewBox="0 0 1500 1500" xmlns="http://www.w3.org/2000/svg">
  <path d="M0 0 C1.17396332 -0.00067474 2.34792664 -0.00134949 3.5574646 -0.00204468 C22.40249293 0.01510684 40.81317348 0.69885493 59.5 3.25 C60.79486328 3.42160645 62.08972656 3.59321289 63.42382812 3.77001953 C135.15011539 13.40911886 205.0605301 38.15811933 265.5 78.25 C266.17933594 78.70052734 266.85867188 79.15105469 267.55859375 79.61523438 C282.71783126 89.7361678 297.60576782 100.44297207 311.5 112.25 C312.58196106 113.15763576 313.66399676 114.06518255 314.74609375 114.97265625 C327.01549326 125.31863219 338.62927841 136.30327003 350 147.625 C350.7415332 148.36186035 351.48306641 149.0987207 352.24707031 149.85791016 C356.31758894 153.94039549 360.21360653 158.1182765 363.9765625 162.48583984 C365.85395775 164.65988761 367.80113597 166.76500942 369.75 168.875 C375.3340425 175.07949166 380.42692192 181.62941471 385.5 188.25 C386.07556641 188.99572266 386.65113281 189.74144531 387.24414062 190.50976562 C396.63851668 202.70544657 405.36957857 215.17811268 413.5 228.25 C414.09280762 229.1997168 414.68561523 230.14943359 415.29638672 231.12792969 C435.36221687 263.44653326 451.26719847 297.23590559 463.5 333.25 C463.80744141 334.14251465 464.11488281 335.0350293 464.43164062 335.95458984 C473.90893852 363.64832797 480.2917794 392.30953393 484.5 421.25 C484.60654907 421.97501709 484.71309814 422.70003418 484.82287598 423.44702148 C491.24428566 467.75991296 491.51252652 515.00251342 484.5 559.25 C484.31808105 560.47058105 484.13616211 561.69116211 483.94873047 562.94873047 C473.30332764 633.88954271 449.9153967 702.61312748 421.5 768.25 C421.03674316 769.32668945 420.57348633 770.40337891 420.09619141 771.51269531 C413.09599906 787.75837723 405.6688793 803.79827784 398.12646484 819.79736328 C396.65860348 822.91331876 395.19756526 826.03236553 393.73828125 829.15234375 C389.17480603 838.87062764 384.3843891 848.42965896 379.33203125 857.90234375 C377.14944004 862.00212942 375.01001989 866.1231838 372.88671875 870.25390625 C372.5708783 870.86827545 372.25503784 871.48264465 371.92962646 872.1156311 C371.61012024 872.73715057 371.29061401 873.35867004 370.96142578 873.99902344 C365.1041821 885.39182482 359.16013744 896.71545269 352.84570312 907.86328125 C351.29666113 910.61063875 349.76502674 913.36735523 348.234375 916.125 C340.54098986 929.96794359 332.63065505 943.6599123 324.5 957.25 C323.81219233 958.40242003 323.12453577 959.55493027 322.43701172 960.70751953 C308.42641251 984.19033439 294.33977351 1007.62045795 279.31445312 1030.47265625 C277.920535 1032.60629626 276.53446976 1034.74420913 275.15429688 1036.88671875 C268.33804507 1047.46600567 261.40797201 1057.96559149 254.42138672 1068.43310547 C252.63206412 1071.11441438 250.8452119 1073.79735726 249.05859375 1076.48046875 C239.02772457 1091.52995654 228.88532626 1106.50476936 218.5 1121.3125 C217.63882568 1122.54190308 217.63882568 1122.54190308 216.76025391 1123.79614258 C212.31259254 1130.12915944 207.79700331 1136.41112095 203.25170898 1142.67431641 C199.644596 1147.64854877 196.09097367 1152.65726211 192.5625 1157.6875 C186.5990406 1166.17449204 180.44918771 1174.51834496 174.2734375 1182.8515625 C172.53026895 1185.20906357 170.79498702 1187.572141 169.0625 1189.9375 C161.02015665 1200.91099355 152.82302839 1211.75838675 144.55419922 1222.56201172 C142.4701621 1225.28904389 140.39233074 1228.0206944 138.31640625 1230.75390625 C131.21645429 1240.09999144 124.07934348 1249.4100701 116.79443359 1258.61279297 C114.52254167 1261.48629489 112.262154 1264.3688308 110 1267.25 C109.08073677 1268.41927681 108.16146596 1269.58854766 107.2421875 1270.7578125 C105.43125825 1273.06228102 103.62425437 1275.36974587 101.8203125 1277.6796875 C94.82480916 1286.62798572 87.68770713 1295.45557333 80.5 1304.25 C79.67242188 1305.26320313 78.84484375 1306.27640625 77.9921875 1307.3203125 C76.52969717 1309.10893307 75.06620245 1310.89673301 73.6015625 1312.68359375 C72.17683835 1314.42345205 70.75505291 1316.16572016 69.3359375 1317.91015625 C64.81286032 1323.46411144 60.22419886 1328.95558013 55.58642578 1334.41357422 C52.68780161 1337.83020732 49.82859421 1341.27486997 47 1344.75 C38.5316192 1355.14369651 29.76764592 1365.29150935 21.03369141 1375.46191406 C19.47204005 1377.28259768 17.91336267 1379.10578814 16.35546875 1380.9296875 C10.80154017 1387.42878113 5.21754208 1393.89343851 -0.5 1400.25 C-4.23323926 1399.00558691 -5.09860164 1397.52312032 -7.5 1394.4375 C-10.86080674 1390.22012401 -14.32039544 1386.190688 -18 1382.25 C-22.21113555 1377.72096073 -26.17643006 1373.04701428 -30.0546875 1368.23046875 C-32.97003882 1364.67709326 -35.9781491 1361.2127909 -39 1357.75 C-43.51812846 1352.56740268 -47.93927375 1347.3252494 -52.265625 1341.98046875 C-54.7615909 1338.9303286 -57.3155794 1335.93430978 -59.875 1332.9375 C-64.10170284 1327.97587801 -68.16300273 1322.90738563 -72.16357422 1317.76245117 C-75.86114623 1313.02302545 -79.66502751 1308.37868392 -83.5 1303.75 C-89.16939107 1296.90108666 -94.71194616 1289.9670925 -100.17333984 1282.95166016 C-102.44008356 1280.044188 -104.72091348 1277.14779929 -107 1274.25 C-107.91540776 1273.08466933 -108.83077237 1271.91930477 -109.74609375 1270.75390625 C-111.59063996 1268.40612327 -113.43718056 1266.05992813 -115.28515625 1263.71484375 C-121.00337403 1256.45490533 -126.67067587 1249.15855032 -132.29248047 1241.82373047 C-134.23220838 1239.29573085 -136.17953369 1236.77358485 -138.125 1234.25 C-139.91827787 1231.91790198 -141.70918382 1229.58398863 -143.5 1227.25 C-144.10682617 1226.45996582 -144.71365234 1225.66993164 -145.33886719 1224.85595703 C-159.92699621 1205.84858794 -159.92699621 1205.84858794 -166.24145508 1196.81298828 C-169.08665966 1192.75405187 -172.14996598 1188.94021937 -175.41796875 1185.21484375 C-176.93867142 1182.45342339 -176.30983012 1181.29795296 -175.5 1178.25 C-174.48055769 1175.51505515 -173.42525431 1172.81919086 -172.31640625 1170.12109375 C-171.82655746 1168.91428955 -171.82655746 1168.91428955 -171.32681274 1167.68310547 C-170.24297202 1165.01614622 -169.15278004 1162.35183257 -168.0625 1159.6875 C-167.29237285 1157.79644856 -166.52260395 1155.90525117 -165.75317383 1154.01391602 C-163.7385093 1149.06537534 -161.71816872 1144.11917502 -159.69567871 1139.17382812 C-158.54804072 1136.36747537 -157.40129294 1133.56076079 -156.25488281 1130.75390625 C-152.56772581 1121.72729168 -148.87542897 1112.70279047 -145.1796875 1103.6796875 C-138.13056473 1086.46874238 -131.10003263 1069.25021306 -124.08032227 1052.0272522 C-121.7571595 1046.32848518 -119.42889441 1040.63184555 -117.09547424 1034.93727112 C-115.69804323 1031.52480737 -114.30430954 1028.1108421 -112.91146851 1024.69650269 C-112.27315317 1023.13408514 -111.63325625 1021.5723126 -110.99160767 1020.01126099 C-103.53174407 1001.85758697 -97.50843693 985.06721126 -104.94921875 965.734375 C-112.63092578 948.47472092 -126.40172021 940.52442782 -143.375 934 C-146.0265807 932.96431031 -148.6753741 931.92157047 -151.32421875 930.87890625 C-152.03518204 930.59992996 -152.74614532 930.32095367 -153.47865295 930.03352356 C-159.536111 927.6494427 -165.56187122 925.19141982 -171.58203125 922.71484375 C-172.53948242 922.32118622 -173.49693359 921.92752869 -174.48339844 921.52194214 C-178.31410095 919.94591813 -182.14431578 918.36874774 -185.97235107 916.78625488 C-220.16944522 901.11341457 -220.16944522 901.11341457 -256.1875 904.69140625 C-261.19854135 906.90940816 -265.49552662 909.52275939 -269.5 913.25 C-270.345625 913.9925 -271.19125 914.735 -272.0625 915.5 C-281.16329507 925.76756367 -285.55346287 937.31122521 -290.5625 949.9375 C-291.34584339 951.88523329 -292.13034106 953.83250276 -292.91601562 955.77929688 C-294.78359011 960.4147706 -296.63743687 965.05554921 -298.48468018 969.69915771 C-300.00406381 973.51638647 -301.53150222 977.33038129 -303.05859375 981.14453125 C-303.87245416 983.17966418 -304.68628222 985.21481004 -305.5 987.25 C-306.49 987.25 -307.48 987.25 -308.5 987.25 C-309.97833018 985.22075977 -311.2188215 983.26526264 -312.45703125 981.09375 C-313.02617249 980.12629601 -313.02617249 980.12629601 -313.60681152 979.13929749 C-314.8527203 977.0155764 -316.08261537 974.8830344 -317.3125 972.75 C-318.17310346 971.27539445 -319.0346831 969.8013582 -319.8972168 968.32788086 C-321.63152066 965.36121054 -323.35952808 962.39101754 -325.08203125 959.41748047 C-327.16500614 955.82289659 -329.26550658 952.23924102 -331.375 948.66015625 C-349.76578868 917.41812757 -367.02372029 885.53979676 -383.5 853.25 C-383.84480408 852.57477295 -384.18960815 851.8995459 -384.54486084 851.20385742 C-395.47531428 829.78088417 -405.90621419 808.18971103 -415.63793945 786.19549561 C-416.48262951 784.28920167 -417.33150061 782.38482585 -418.18164062 780.48095703 C-448.81735565 711.7909116 -474.06462496 639.03470311 -486.375 557.75 C-486.47268677 557.07711945 -486.57037354 556.40423889 -486.67102051 555.71096802 C-487.35964224 550.89855925 -487.95586814 546.0803898 -488.5 541.25 C-488.63773834 540.04774277 -488.63773834 540.04774277 -488.77825928 538.82119751 C-490.74644953 521.04927355 -490.89901868 503.29320874 -490.875 485.4375 C-490.8749081 484.69866955 -490.87481621 483.9598391 -490.87472153 483.19861984 C-490.8711479 460.94935638 -490.28553186 439.23303475 -486.5 417.25 C-486.14343556 414.92875247 -485.78926574 412.60713583 -485.4375 410.28515625 C-471.24821685 320.67029358 -430.36177362 234.17811308 -367.6953125 164.65625 C-366.49611293 163.34182484 -365.30438671 162.01976457 -364.15234375 160.66381836 C-358.75852982 154.33857268 -352.91518243 148.47907561 -347.04052734 142.60522461 C-345.26238228 140.82489748 -343.49240439 139.03671623 -341.72265625 137.24804688 C-335.69689645 131.19323878 -329.61792099 125.46416647 -322.89892578 120.17529297 C-320.37526863 118.14989501 -317.9991763 116.01031327 -315.625 113.8125 C-309.86385594 108.58412632 -303.74094963 103.88247417 -297.5 99.25 C-296.50202393 98.5072583 -296.50202393 98.5072583 -295.48388672 97.74951172 C-209.57182897 34.07491749 -106.88873846 0.05544265 0 0 Z " transform="translate(763.5,56.75)" style="fill: #FCFCFC;"/>
  <path d="M0 0 C1.17396332 -0.00067474 2.34792664 -0.00134949 3.5574646 -0.00204468 C22.40249293 0.01510684 40.81317348 0.69885493 59.5 3.25 C60.79486328 3.42160645 62.08972656 3.59321289 63.42382812 3.77001953 C135.15011539 13.40911886 205.0605301 38.15811933 265.5 78.25 C266.17933594 78.70052734 266.85867188 79.15105469 267.55859375 79.61523438 C282.71783126 89.7361678 297.60576782 100.44297207 311.5 112.25 C312.58196106 113.15763576 313.66399676 114.06518255 314.74609375 114.97265625 C327.01549326 125.31863219 338.62927841 136.30327003 350 147.625 C350.7415332 148.36186035 351.48306641 149.0987207 352.24707031 149.85791016 C356.31758894 153.94039549 360.21360653 158.1182765 363.9765625 162.48583984 C365.85395775 164.65988761 367.80113597 166.76500942 369.75 168.875 C375.3340425 175.07949166 380.42692192 181.62941471 385.5 188.25 C386.07556641 188.99572266 386.65113281 189.74144531 387.24414062 190.50976562 C396.63851668 202.70544657 405.36957857 215.17811268 413.5 228.25 C414.09280762 229.1997168 414.68561523 230.14943359 415.29638672 231.12792969 C435.36221687 263.44653326 451.26719847 297.23590559 463.5 333.25 C463.80744141 334.14251465 464.11488281 335.0350293 464.43164062 335.95458984 C473.90893852 363.64832797 480.2917794 392.30953393 484.5 421.25 C484.60654907 421.97501709 484.71309814 422.70003418 484.82287598 423.44702148 C491.24428566 467.75991296 491.51252652 515.00251342 484.5 559.25 C484.31808105 560.47058105 484.13616211 561.69116211 483.94873047 562.94873047 C473.30332764 633.88954271 449.9153967 702.61312748 421.5 768.25 C421.03674316 769.32668945 420.57348633 770.40337891 420.09619141 771.51269531 C413.09599906 787.75837723 405.6688793 803.79827784 398.12646484 819.79736328 C396.65860348 822.91331876 395.19756526 826.03236553 393.73828125 829.15234375 C389.17480603 838.87062764 384.3843891 848.42965896 379.33203125 857.90234375 C377.14944004 862.00212942 375.01001989 866.1231838 372.88671875 870.25390625 C372.5708783 870.86827545 372.25503784 871.48264465 371.92962646 872.1156311 C371.61012024 872.73715057 371.29061401 873.35867004 370.96142578 873.99902344 C365.1041821 885.39182482 359.16013744 896.71545269 352.84570312 907.86328125 C351.29666113 910.61063875 349.76502674 913.36735523 348.234375 916.125 C340.54098986 929.96794359 332.63065505 943.6599123 324.5 957.25 C323.81219233 958.40242003 323.12453577 959.55493027 322.43701172 960.70751953 C308.42641251 984.19033439 294.33977351 1007.62045795 279.31445312 1030.47265625 C277.920535 1032.60629626 276.53446976 1034.74420913 275.15429688 1036.88671875 C268.33804507 1047.46600567 261.40797201 1057.96559149 254.42138672 1068.43310547 C252.63206412 1071.11441438 250.8452119 1073.79735726 249.05859375 1076.48046875 C239.02772457 1091.52995654 228.88532626 1106.50476936 218.5 1121.3125 C217.63882568 1122.54190308 217.63882568 1122.54190308 216.76025391 1123.79614258 C212.31259254 1130.12915944 207.79700331 1136.41112095 203.25170898 1142.67431641 C199.644596 1147.64854877 196.09097367 1152.65726211 192.5625 1157.6875 C186.5990406 1166.17449204 180.44918771 1174.51834496 174.2734375 1182.8515625 C172.53026895 1185.20906357 170.79498702 1187.572141 169.0625 1189.9375 C161.02015665 1200.91099355 152.82302839 1211.75838675 144.55419922 1222.56201172 C142.4701621 1225.28904389 140.39233074 1228.0206944 138.31640625 1230.75390625 C131.21645429 1240.09999144 124.07934348 1249.4100701 116.79443359 1258.61279297 C114.52254167 1261.48629489 112.262154 1264.3688308 110 1267.25 C109.08073677 1268.41927681 108.16146596 1269.58854766 107.2421875 1270.7578125 C105.43125825 1273.06228102 103.62425437 1275.36974587 101.8203125 1277.6796875 C94.82480916 1286.62798572 87.68770713 1295.45557333 80.5 1304.25 C79.67242188 1305.26320313 78.84484375 1306.27640625 77.9921875 1307.3203125 C76.52969717 1309.10893307 75.06620245 1310.89673301 73.6015625 1312.68359375 C72.17683835 1314.42345205 70.75505291 1316.16572016 69.3359375 1317.91015625 C64.81286032 1323.46411144 60.22419886 1328.95558013 55.58642578 1334.41357422 C52.68780161 1337.83020732 49.82859421 1341.27486997 47 1344.75 C38.5316192 1355.14369651 29.76764592 1365.29150935 21.03369141 1375.46191406 C19.47204005 1377.28259768 17.91336267 1379.10578814 16.35546875 1380.9296875 C10.80154017 1387.42878113 5.21754208 1393.89343851 -0.5 1400.25 C-4.23323926 1399.00558691 -5.09860164 1397.52312032 -7.5 1394.4375 C-10.86080674 1390.22012401 -14.32039544 1386.190688 -18 1382.25 C-22.21113555 1377.72096073 -26.17643006 1373.04701428 -30.0546875 1368.23046875 C-32.97003882 1364.67709326 -35.9781491 1361.2127909 -39 1357.75 C-43.51812846 1352.56740268 -47.93927375 1347.3252494 -52.265625 1341.98046875 C-54.7615909 1338.9303286 -57.3155794 1335.93430978 -59.875 1332.9375 C-64.10170284 1327.97587801 -68.16300273 1322.90738563 -72.16357422 1317.76245117 C-75.86114623 1313.02302545 -79.66502751 1308.37868392 -83.5 1303.75 C-89.16939107 1296.90108666 -94.71194616 1289.9670925 -100.17333984 1282.95166016 C-102.44008356 1280.044188 -104.72091348 1277.14779929 -107 1274.25 C-107.91540776 1273.08466933 -108.83077237 1271.91930477 -109.74609375 1270.75390625 C-111.59063996 1268.40612327 -113.43718056 1266.05992813 -115.28515625 1263.71484375 C-121.00337403 1256.45490533 -126.67067587 1249.15855032 -132.29248047 1241.82373047 C-134.23220838 1239.29573085 -136.17953369 1236.77358485 -138.125 1234.25 C-139.91827787 1231.91790198 -141.70918382 1229.58398863 -143.5 1227.25 C-144.10682617 1226.45996582 -144.71365234 1225.66993164 -145.33886719 1224.85595703 C-159.92699621 1205.84858794 -159.92699621 1205.84858794 -166.24145508 1196.81298828 C-169.08665966 1192.75405187 -172.14996598 1188.94021937 -175.41796875 1185.21484375 C-176.93867142 1182.45342339 -176.30983012 1181.29795296 -175.5 1178.25 C-174.48055769 1175.51505515 -173.42525431 1172.81919086 -172.31640625 1170.12109375 C-171.82655746 1168.91428955 -171.82655746 1168.91428955 -171.32681274 1167.68310547 C-170.24297202 1165.01614622 -169.15278004 1162.35183257 -168.0625 1159.6875 C-167.29237285 1157.79644856 -166.52260395 1155.90525117 -165.75317383 1154.01391602 C-163.7385093 1149.06537534 -161.71816872 1144.11917502 -159.69567871 1139.17382812 C-158.54804072 1136.36747537 -157.40129294 1133.56076079 -156.25488281 1130.75390625 C-152.56772581 1121.72729168 -148.87542897 1112.70279047 -145.1796875 1103.6796875 C-138.13056473 1086.46874238 -131.10003263 1069.25021306 -124.08032227 1052.0272522 C-121.7571595 1046.32848518 -119.42889441 1040.63184555 -117.09547424 1034.93727112 C-115.69804323 1031.52480737 -114.30430954 1028.1108421 -112.91146851 1024.69650269 C-112.27315317 1023.13408514 -111.63325625 1021.5723126 -110.99160767 1020.01126099 C-103.53174407 1001.85758697 -97.50843693 985.06721126 -104.94921875 965.734375 C-112.63092578 948.47472092 -126.40172021 940.52442782 -143.375 934 C-146.0265807 932.96431031 -148.6753741 931.92157047 -151.32421875 930.87890625 C-152.03518204 930.59992996 -152.74614532 930.32095367 -153.47865295 930.03352356 C-159.536111 927.6494427 -165.56187122 925.19141982 -171.58203125 922.71484375 C-172.53948242 922.32118622 -173.49693359 921.92752869 -174.48339844 921.52194214 C-178.31410095 919.94591813 -182.14431578 918.36874774 -185.97235107 916.78625488 C-220.16944522 901.11341457 -220.16944522 901.11341457 -256.1875 904.69140625 C-261.19854135 906.90940816 -265.49552662 909.52275939 -269.5 913.25 C-270.345625 913.9925 -271.19125 914.735 -272.0625 915.5 C-281.16329507 925.76756367 -285.55346287 937.31122521 -290.5625 949.9375 C-291.34584339 951.88523329 -292.13034106 953.83250276 -292.91601562 955.77929688 C-294.78359011 960.4147706 -296.63743687 965.05554921 -298.48468018 969.69915771 C-300.00406381 973.51638647 -301.53150222 977.33038129 -303.05859375 981.14453125 C-303.87245416 983.17966418 -304.68628222 985.21481004 -305.5 987.25 C-306.49 987.25 -307.48 987.25 -308.5 987.25 C-309.97833018 985.22075977 -311.2188215 983.26526264 -312.45703125 981.09375 C-313.02617249 980.12629601 -313.02617249 980.12629601 -313.60681152 979.13929749 C-314.8527203 977.0155764 -316.08261537 974.8830344 -317.3125 972.75 C-318.17310346 971.27539445 -319.0346831 969.8013582 -319.8972168 968.32788086 C-321.63152066 965.36121054 -323.35952808 962.39101754 -325.08203125 959.41748047 C-327.16500614 955.82289659 -329.26550658 952.23924102 -331.375 948.66015625 C-349.76578868 917.41812757 -367.02372029 885.53979676 -383.5 853.25 C-383.84480408 852.57477295 -384.18960815 851.8995459 -384.54486084 851.20385742 C-395.47531428 829.78088417 -405.90621419 808.18971103 -415.63793945 786.19549561 C-416.48262951 784.28920167 -417.33150061 782.38482585 -418.18164062 780.48095703 C-448.81735565 711.7909116 -474.06462496 639.03470311 -486.375 557.75 C-486.47268677 557.07711945 -486.57037354 556.40423889 -486.67102051 555.71096802 C-487.35964224 550.89855925 -487.95586814 546.0803898 -488.5 541.25 C-488.63773834 540.04774277 -488.63773834 540.04774277 -488.77825928 538.82119751 C-490.74644953 521.04927355 -490.89901868 503.29320874 -490.875 485.4375 C-490.8749081 484.69866955 -490.87481621 483.9598391 -490.87472153 483.19861984 C-490.8711479 460.94935638 -490.28553186 439.23303475 -486.5 417.25 C-486.14343556 414.92875247 -485.78926574 412.60713583 -485.4375 410.28515625 C-471.24821685 320.67029358 -430.36177362 234.17811308 -367.6953125 164.65625 C-366.49611293 163.34182484 -365.30438671 162.01976457 -364.15234375 160.66381836 C-358.75852982 154.33857268 -352.91518243 148.47907561 -347.04052734 142.60522461 C-345.26238228 140.82489748 -343.49240439 139.03671623 -341.72265625 137.24804688 C-335.69689645 131.19323878 -329.61792099 125.46416647 -322.89892578 120.17529297 C-320.37526863 118.14989501 -317.9991763 116.01031327 -315.625 113.8125 C-309.86385594 108.58412632 -303.74094963 103.88247417 -297.5 99.25 C-296.50202393 98.5072583 -296.50202393 98.5072583 -295.48388672 97.74951172 C-209.57182897 34.07491749 -106.88873846 0.05544265 0 0 Z M-116.5 120.25 C-117.93393577 120.73203212 -119.36890406 121.21099957 -120.8046875 121.6875 C-138.95758158 127.69317576 -138.95758158 127.69317576 -156.5 135.25 C-157.55058594 135.72566406 -158.60117187 136.20132813 -159.68359375 136.69140625 C-209.13735758 159.17038981 -256.4133084 192.3495982 -291.5 234.25 C-292.304375 235.17683594 -293.10875 236.10367188 -293.9375 237.05859375 C-311.52130753 257.38409963 -326.54879978 279.72083197 -339.5 303.25 C-339.97646973 304.10722656 -340.45293945 304.96445312 -340.94384766 305.84765625 C-358.96948101 338.48979163 -371.66595411 373.83466947 -379.5 410.25 C-379.69287598 411.11206055 -379.88575195 411.97412109 -380.08447266 412.86230469 C-385.598735 437.52504735 -387.71798695 462.64135075 -387.6875 487.875 C-387.68722809 488.72494537 -387.68695618 489.57489075 -387.68667603 490.45059204 C-387.61246736 541.20872732 -379.22477033 593.59155985 -358.5 640.25 C-358.19223633 640.95286133 -357.88447266 641.65572266 -357.56738281 642.37988281 C-345.14814546 670.72121934 -330.75641591 697.21323123 -312.5 722.25 C-311.95923828 722.99572266 -311.41847656 723.74144531 -310.86132812 724.50976562 C-304.80523947 732.83410781 -298.52965274 740.71530425 -291.5 748.25 C-290.3275575 749.5782573 -289.16063783 750.91141541 -288 752.25 C-278.09902252 763.58162331 -267.97690044 774.48964467 -256.5 784.25 C-255.54222656 785.09691406 -254.58445312 785.94382812 -253.59765625 786.81640625 C-237.5513843 800.94271442 -219.69992727 815.65003636 -200.5 825.25 C-201.08047765 830.07016886 -202.55522759 833.84633855 -204.5625 838.25 C-208.18672915 846.77516333 -209.25227984 855.54807848 -206.4375 864.5625 C-200.74604958 876.95603222 -190.91497907 881.96592733 -178.7890625 886.75390625 C-177.27679581 887.36165138 -177.27679581 887.36165138 -175.73397827 887.98167419 C-172.53381721 889.26582659 -169.32954271 890.53932687 -166.125 891.8125 C-163.98148898 892.67052017 -161.83825708 893.52923797 -159.6953125 894.38867188 C-154.84875577 896.33069962 -150.00050154 898.26829102 -145.14642334 900.19145203 C-143.34187763 900.91325574 -141.5420848 901.64702911 -139.74664307 902.39118958 C-138.8684491 902.7530687 -137.99025513 903.11494781 -137.08544922 903.48779297 C-136.30676483 903.81302948 -135.52808044 904.13826599 -134.72579956 904.47335815 C-131.15272629 905.72010034 -127.75576883 905.89303734 -124 905.8125 C-123.2673291 905.80226807 -122.5346582 905.79203613 -121.77978516 905.78149414 C-115.44512951 905.53440757 -110.66471538 904.02571996 -105.5 900.25 C-104.88125 899.83492187 -104.2625 899.41984375 -103.625 898.9921875 C-96.10228369 892.84639695 -92.49756213 881.24268638 -89.5 872.25 C-82.24655666 873.04994604 -75.11254077 874.37008412 -67.9375 875.6875 C-46.25648128 879.60410717 -25.20039423 881.46267998 -3.1875 881.4375 C-1.72376953 881.43659363 -1.72376953 881.43659363 -0.23046875 881.43566895 C14.77155835 881.41047714 29.59195949 881.0734264 44.5 879.25 C45.61681152 879.11577637 46.73362305 878.98155273 47.88427734 878.84326172 C95.13409949 872.99932399 140.31856255 858.25047821 182.5 836.25 C183.32483887 835.82235352 184.14967773 835.39470703 184.99951172 834.95410156 C209.27857547 822.2894841 231.53815235 806.83867676 252.5 789.25 C253.4590625 788.4765625 254.418125 787.703125 255.40625 786.90625 C263.85301318 779.99526195 271.58560987 772.38018408 279.3125 764.6875 C279.84820618 764.15697021 280.38391235 763.62644043 280.93585205 763.07983398 C287.93246118 756.13654001 294.34991836 748.96773406 300.5 741.25 C301.44636952 740.13633152 302.39946218 739.02828913 303.36328125 737.9296875 C323.48907282 714.88292777 339.34569782 687.79084284 352.5 660.25 C353.03343018 659.1374585 353.03343018 659.1374585 353.57763672 658.00244141 C359.75471546 645.00739495 364.80823216 631.71429341 369.50390625 618.11962891 C370.37951722 615.59709672 371.27800442 613.0846682 372.1875 610.57421875 C380.73400609 586.5771089 384.94870607 561.00667591 388.1875 535.8125 C388.30697998 534.89065918 388.42645996 533.96881836 388.54956055 533.01904297 C390.28696938 518.77002602 390.71085261 504.52489245 390.6875 490.1875 C390.68623108 489.37686096 390.68496216 488.56622192 390.68365479 487.73101807 C390.60835287 462.35925068 387.12151701 438.14160348 382.5 413.25 C382.31147461 412.22729004 382.12294922 411.20458008 381.92871094 410.15087891 C378.84210313 393.68192357 373.82606051 377.88635352 368.375 362.0625 C368.05047852 361.11858398 367.72595703 360.17466797 367.39160156 359.20214844 C365.60127765 354.09290934 363.63529028 349.13049031 361.38867188 344.20483398 C360.29067465 341.78954174 359.30103165 339.33686043 358.3125 336.875 C347.3940353 310.64405431 333.33102973 286.11440256 316.5 263.25 C315.79488281 262.27933594 315.08976562 261.30867187 314.36328125 260.30859375 C298.08379623 238.19136364 279.48507397 217.032089 258.5 199.25 C257.48590881 198.3618978 256.4729921 197.4724536 255.4609375 196.58203125 C220.19326627 165.70372367 179.06324538 143.12981056 135.5 126.25 C134.80293945 125.97607422 134.10587891 125.70214844 133.38769531 125.41992188 C129.46849747 123.88888299 125.50614652 122.5314751 121.5 121.25 C120.18999023 120.82388428 120.18999023 120.82388428 118.85351562 120.38916016 C81.14167596 108.25519739 42.37288894 101.99231874 2.75 102.0625 C1.99854706 102.06376892 1.24709412 102.06503784 0.47286987 102.06634521 C-39.06415734 102.19195021 -79.07254708 107.00512511 -116.5 120.25 Z " transform="translate(763.5,56.75)" style="fill: #FCFCFC;"/>
  <path d="M0 0 C1.07325027 -0.00163147 1.07325027 -0.00163147 2.16818237 -0.0032959 C84.10988577 0.01088066 168.13564609 28.36064542 232.87548828 78.73046875 C234.720221 80.1643532 236.57574325 81.58317195 238.43359375 83 C245.24183095 88.22793509 251.69950303 93.71128355 257.9609375 99.58203125 C260.47895746 101.9342992 263.03985113 104.22220597 265.625 106.5 C274.87741496 114.81073137 283.76303444 123.64949426 291.75 133.1875 C292.554375 134.11433594 293.35875 135.04117188 294.1875 135.99609375 C306.2197858 149.90597374 316.76007251 164.76044394 326.75 180.1875 C327.42289063 181.21488281 328.09578125 182.24226562 328.7890625 183.30078125 C341.53949654 203.34880414 352.54269927 224.8930413 360.75 247.1875 C361.29997487 248.64353401 361.85081026 250.09924317 362.40234375 251.5546875 C392.99292091 332.740625 397.32090054 424.3978277 369.75 507.1875 C369.26490967 508.6729834 369.26490967 508.6729834 368.77001953 510.18847656 C361.96333319 530.94807658 353.79492711 550.99530682 343.69140625 570.37402344 C342.76913504 572.15063925 341.86868704 573.93852971 340.96875 575.7265625 C323.4460144 610.09916818 298.53388483 640.5711454 271.375 667.75 C270.50617187 668.63107422 269.63734375 669.51214844 268.7421875 670.41992188 C262.72567385 676.44978577 256.3953285 681.86768847 249.75 687.1875 C248.60192934 688.1581443 247.4588805 689.13480813 246.32421875 690.12109375 C238.79085821 696.65544302 230.97313931 702.55151599 222.75 708.1875 C222.15461426 708.5985498 221.55922852 709.00959961 220.94580078 709.43310547 C211.85131326 715.69243966 202.51408787 721.4550313 192.93261719 726.9375 C191.48537601 727.76634506 190.04067233 728.59963773 188.59863281 729.4375 C163.95522261 743.74297168 137.12091772 755.24809512 109.75 763.1875 C108.59177734 763.52418701 108.59177734 763.52418701 107.41015625 763.86767578 C87.9323613 769.47617028 68.40337624 773.70721434 48.3125 776.4375 C47.11753906 776.60072754 45.92257812 776.76395508 44.69140625 776.93212891 C29.08637938 778.94050613 13.5372894 779.37416405 -2.17773438 779.37280273 C-4.98322803 779.37498694 -7.78832538 779.39322671 -10.59375 779.41210938 C-27.62189785 779.46580362 -44.39032258 778.08427717 -61.1875 775.25 C-62.75806152 774.99331543 -62.75806152 774.99331543 -64.36035156 774.73144531 C-71.15437998 773.60086172 -77.87734121 772.30178915 -84.578125 770.703125 C-87.20727135 770.19574588 -89.580049 770.09005653 -92.25 770.1875 C-92.55852905 770.98800781 -92.55852905 770.98800781 -92.87329102 771.8046875 C-97.9570412 784.8389325 -102.17733275 795.56590985 -115.25 802.1875 C-129.57873573 806.96374524 -143.11969707 800.8703904 -156.125 795.1875 C-157.90898622 794.43342387 -159.69414228 793.68210922 -161.48046875 792.93359375 C-165.01162161 791.44920635 -168.53195543 789.9426226 -172.04589844 788.41796875 C-175.53025786 786.91113023 -179.03059527 785.45970245 -182.55566406 784.05078125 C-183.83656418 783.53257812 -183.83656418 783.53257812 -185.14334106 783.00390625 C-186.74260282 782.35898667 -188.34592289 781.72399235 -189.95407104 781.1015625 C-197.17955709 778.16198739 -202.73167048 773.92422441 -206.625 767.0625 C-207.10710937 766.23492188 -207.58921875 765.40734375 -208.0859375 764.5546875 C-211.45270924 757.7081651 -211.68710259 749.10064522 -209.55859375 741.82373047 C-207.88465305 737.11061156 -205.95095125 732.51551268 -203.89257812 727.95825195 C-203.07944069 726.03144622 -203.07944069 726.03144622 -203.25 723.1875 C-205.59577856 721.52717622 -207.89967828 720.06804673 -210.375 718.625 C-239.61623955 700.95882363 -268.05655344 677.48631364 -290.265625 651.5078125 C-291.7795273 649.73761966 -293.31476703 647.98565218 -294.859375 646.2421875 C-324.10532013 613.05424706 -347.74199107 573.62043076 -363.44042969 532.29736328 C-364.12611875 530.51035337 -364.84467219 528.73600723 -365.5703125 526.96484375 C-374.30897841 505.46541073 -379.48598247 482.82802303 -384.25 460.1875 C-384.53846802 458.86794312 -384.53846802 458.86794312 -384.83276367 457.52172852 C-386.26699743 450.76947294 -387.07127874 443.98423803 -387.8125 437.125 C-387.93818359 436.02478516 -388.06386719 434.92457031 -388.19335938 433.79101562 C-389.8871963 418.40459118 -390.48687624 403.03463607 -390.5 387.5625 C-390.50100708 386.72388428 -390.50201416 385.88526855 -390.50305176 385.02124023 C-390.48358 360.75943433 -387.94275764 337.002106 -383.25 313.1875 C-382.9503066 311.58988392 -382.65082113 309.99222882 -382.3515625 308.39453125 C-370.8382766 248.76769811 -342.47542562 191.83366387 -304.4921875 144.73388672 C-303.35845213 143.32251096 -302.24083922 141.8982229 -301.125 140.47265625 C-288.20331997 124.19819182 -273.15696203 108.56581372 -257.25 95.1875 C-256.35667969 94.40503906 -255.46335937 93.62257813 -254.54296875 92.81640625 C-228.70816785 70.31068156 -199.11828046 51.93643978 -168.25 37.1875 C-167.20328125 36.67960937 -166.1565625 36.17171875 -165.078125 35.6484375 C-155.33142197 31.02246424 -145.29675395 27.10475082 -135.25 23.1875 C-134.2290625 22.78402344 -133.208125 22.38054687 -132.15625 21.96484375 C-124.42868179 19.01930463 -116.44954293 16.92773859 -108.47070312 14.78564453 C-106.44160095 14.23910756 -104.41571722 13.68227024 -102.390625 13.12109375 C-68.75400548 3.91794141 -34.83712327 0.02813719 0 0 Z M-142.38378906 115.21386719 C-144.19098706 116.15671198 -146.01061764 117.06940353 -147.8359375 117.9765625 C-167.85147044 128.07969293 -187.45137655 141.63505532 -203.84375 156.95703125 C-205.86427443 158.82995244 -207.91833166 160.6345652 -210.00390625 162.43359375 C-221.04216967 172.06411218 -231.27263236 182.6173908 -240.25 194.1875 C-241.19755571 195.34877991 -242.14829595 196.50746589 -243.1015625 197.6640625 C-250.07010061 206.15495132 -256.39054364 214.89775889 -262.25 224.1875 C-262.8078418 225.06776855 -262.8078418 225.06776855 -263.37695312 225.96582031 C-285.90352161 261.78187233 -300.7020338 301.46689328 -307.5 343.1875 C-307.74496216 344.69050659 -307.74496216 344.69050659 -307.99487305 346.22387695 C-310.11333228 359.92445054 -310.43644687 373.5157283 -310.43530273 387.35058594 C-310.43748031 390.28595692 -310.45567351 393.22094553 -310.47460938 396.15625 C-310.52916085 413.79929038 -308.79964018 430.90524577 -305.625 448.25 C-305.4347525 449.29793228 -305.4347525 449.29793228 -305.24066162 450.36703491 C-296.28585705 499.06282482 -273.46404218 545.87774197 -242.25 584.1875 C-241.81381348 584.72665039 -241.37762695 585.26580078 -240.92822266 585.82128906 C-233.66444855 594.71497065 -225.71563513 602.92700299 -217.625 611.0625 C-217.14398834 611.54877869 -216.66297668 612.03505737 -216.16738892 612.53607178 C-209.54517277 619.21432347 -202.64913299 625.3762563 -195.25 631.1875 C-194.57114746 631.72568359 -193.89229492 632.26386719 -193.19287109 632.81835938 C-147.8070808 668.43667697 -92.51824069 690.83912826 -35.25 697.1875 C-34.49478561 697.27482895 -33.73957123 697.3621579 -32.96147156 697.45213318 C-26.82241025 698.12265291 -20.75509756 698.3622991 -14.58203125 698.390625 C-13.58531906 698.39632507 -12.58860687 698.40202515 -11.56169128 698.40789795 C-9.45821167 698.41729091 -7.35471772 698.42385904 -5.2512207 698.42773438 C-2.11576739 698.43733687 1.01899967 698.46837276 4.15429688 698.5 C18.25044336 698.57286819 31.82857734 697.34171999 45.75 695.1875 C47.22704635 694.97150978 48.70424796 694.75657724 50.18164062 694.54296875 C75.99163293 690.68327114 102.30926007 682.58347946 125.75 671.1875 C127.0491938 670.59546232 128.35007643 670.00712108 129.65234375 669.421875 C161.96178356 654.79596907 190.2095441 633.59331892 215.75 609.1875 C216.62140625 608.35863281 217.4928125 607.52976562 218.390625 606.67578125 C223.17273884 602.0190725 227.41309441 597.06503183 231.578125 591.8515625 C233.49773784 589.49692948 235.48964361 587.28097027 237.5625 585.0625 C269.13313135 549.74831552 290.14417421 501.11414899 299.75 455.1875 C300.02328125 453.90617187 300.2965625 452.62484375 300.578125 451.3046875 C301.22310627 448.07291965 301.8088867 444.83860543 302.34667969 441.58740234 C302.64019036 439.84090721 302.94737162 438.09669284 303.26269531 436.35400391 C305.88821844 421.68372102 307.1196744 407.43564932 307.0625 392.5625 C307.05995209 391.8264856 307.05740417 391.09047119 307.05477905 390.33215332 C307.02462575 385.28136846 306.9156062 380.23559228 306.75 375.1875 C306.72623291 374.45334869 306.70246582 373.71919739 306.67797852 372.96279907 C306.27527317 361.6985247 305.0333537 350.72924532 303.125 339.625 C302.99439178 338.85124023 302.86378357 338.07748047 302.72921753 337.28027344 C300.34848661 323.28740597 297.12134647 309.70352997 292.75 296.1875 C292.32267578 294.85162842 292.32267578 294.85162842 291.88671875 293.48876953 C279.01987038 253.76457842 257.7320876 217.30283586 230.27734375 185.93579102 C229.21236085 184.71674649 228.15287682 183.49288552 227.09765625 182.26538086 C217.29383664 170.91380812 206.61317811 160.37298934 194.75 151.1875 C193.74453125 150.36507812 192.7390625 149.54265625 191.703125 148.6953125 C165.28058247 127.17139786 135.35812108 110.58765752 103.32226562 99.11230469 C101.65055772 98.51127682 99.98232246 97.90046876 98.31835938 97.27832031 C21.3331851 68.51083669 -70.26928974 77.29190569 -142.38378906 115.21386719 Z " transform="translate(766.25,158.8125)" style="fill: #25B597;"/>
  <path d="M0 0 C1.2398638 0.51043346 2.47994768 1.02033257 3.72021484 1.52978516 C9.55821466 3.93187953 15.3892726 6.34975195 21.2043457 8.80688477 C29.87172111 12.46719738 38.56441215 16.04428687 47.3125 19.5078125 C49.21535414 20.26443007 51.1181863 21.02110293 53.02099609 21.77783203 C55.79509981 22.88045351 58.5704981 23.97875527 61.35186768 25.06292725 C78.49733734 31.74871311 93.67567535 39.6371335 102 57 C109.451719 74.98132192 105.36174324 90.85161092 98.375 108.1875 C97.90481445 109.36965088 97.43462891 110.55180176 96.95019531 111.76977539 C91.94194379 124.31805899 86.72877214 136.78393847 81.53588867 149.2565918 C76.8633667 160.48200883 72.24301401 171.72660146 67.6875 183 C66.47019114 186.01177499 65.25279786 189.02351578 64.03515625 192.03515625 C63.72203491 192.80965118 63.40891357 193.58414612 63.08630371 194.3821106 C58.62423016 205.41075516 54.12267256 216.4233388 49.625 227.4375 C49.21011322 228.45368408 48.79522644 229.46986816 48.36776733 230.5168457 C47.55370535 232.51067162 46.73954335 234.50445671 45.92527771 236.49819946 C45.13067151 238.4440182 44.33636663 240.38996001 43.54237366 242.33602905 C41.53899489 247.24389057 39.52764538 252.14826207 37.50292969 257.04736328 C37.09722748 258.0316481 36.69152527 259.01593292 36.27352905 260.03004456 C35.50944582 261.88307647 34.74305058 263.73515762 33.9737854 265.58604431 C32.01977655 270.33119025 30.25419088 275.08791423 28.6696167 279.96870422 C27.75700871 282.73711898 26.71605862 285.44661624 25.65234375 288.16015625 C24.99999756 289.82546387 24.99999756 289.82546387 24.33447266 291.52441406 C23.87347168 292.69198242 23.4124707 293.85955078 22.9375 295.0625 C22.6963446 295.67492554 22.45518921 296.28735107 22.20672607 296.91833496 C18.55143153 306.19639871 14.7825728 315.42311273 10.9206543 324.6171875 C7.30165942 333.24069054 3.76671142 341.89692286 0.25 350.5625 C-0.01858826 351.22382935 -0.28717651 351.88515869 -0.56390381 352.56652832 C-3.398253 359.54697003 -6.21624046 366.53358949 -9.0078125 373.53125 C-11.7495468 380.39910095 -14.53758004 387.24714291 -17.35986328 394.08227539 C-17.8748926 395.33106537 -18.38853928 396.58042638 -18.90087891 397.83032227 C-26.52630299 416.43260918 -26.52630299 416.43260918 -31.125 422.5 C-31.62257813 423.1703125 -32.12015625 423.840625 -32.6328125 424.53125 C-33.08398438 425.0159375 -33.53515625 425.500625 -34 426 C-34.66 426 -35.32 426 -36 426 C-36.33 426.99 -36.66 427.98 -37 429 C-40.44444444 432 -40.44444444 432 -43 432 C-43 432.66 -43 433.32 -43 434 C-59.07321547 441.92013516 -72.91076977 446.19860576 -90.87109375 440.51953125 C-98.25907987 437.88745686 -105.45444611 434.73365856 -112.66796875 431.6640625 C-119.71795114 428.67355632 -126.84174767 425.8879439 -133.98608398 423.13208008 C-139.68042199 420.92986438 -145.32626471 418.63213094 -150.95605469 416.26977539 C-153.96258057 415.01560944 -156.97912082 413.78944951 -160 412.5703125 C-188.44430242 401.024861 -188.44430242 401.024861 -196 392 C-196 391.34 -196 390.68 -196 390 C-196.66 390 -197.32 390 -198 390 C-206.14483282 380.06378166 -209.59651865 366.25708671 -209.46875 353.671875 C-208.20239437 343.75208924 -204.92719523 334.73212393 -201.0625 325.5625 C-200.58594971 324.41233398 -200.10939941 323.26216797 -199.6184082 322.07714844 C-198.60688912 319.63792175 -197.59263929 317.20007993 -196.57324219 314.76416016 C-194.97948011 310.95474364 -193.398445 307.14013252 -191.8203125 303.32421875 C-191.5595845 302.69384201 -191.29885651 302.06346527 -191.03022766 301.41398621 C-190.50808233 300.15150387 -189.98597211 298.88900702 -189.46389771 297.62649536 C-188.69150969 295.75969113 -187.91804975 293.89333445 -187.14428711 292.02709961 C-183.69782062 283.7094306 -180.30852919 275.37343808 -177 267 C-172.94856179 256.74636009 -168.75627972 246.55444422 -164.53308105 236.3704834 C-157.95010691 220.49365754 -151.40438474 204.59989335 -145.0625 188.625 C-141.66195812 180.08433267 -138.12105367 171.60134591 -134.60058594 163.10961914 C-130.39463075 152.96338548 -126.22604107 142.80230572 -122.07666016 132.6328125 C-120.97586097 129.94097159 -119.86948307 127.25148145 -118.76171875 124.5625 C-115.65620032 117.01420666 -112.55599562 109.46757201 -109.609375 101.85546875 C-109.01672852 100.32490845 -109.01672852 100.32490845 -108.41210938 98.76342773 C-107.66392562 96.82333696 -106.92008574 94.88156253 -106.18164062 92.93774414 C-105.83810547 92.04563232 -105.49457031 91.15352051 -105.140625 90.234375 C-104.84704102 89.46319336 -104.55345703 88.69201172 -104.25097656 87.89746094 C-103.14950183 85.34627004 -101.94528181 82.91454755 -100.67773438 80.44360352 C-97.75761248 74.65550714 -95.38198189 68.69925559 -93.015625 62.66796875 C-92.07103483 60.29854004 -91.1256989 57.92940851 -90.1796875 55.56054688 C-88.71342446 51.87750371 -87.25208202 48.19280451 -85.80371094 44.50268555 C-70.65545551 5.98070289 -70.65545551 5.98070289 -51.50463867 -2.63110352 C-33.31440372 -10.43501909 -17.66157918 -7.35288428 0 0 Z " transform="translate(557,964)" style="fill: #25B597;"/>
  <path d="M0 0 C40.84956488 4.98694263 76.64958305 26.42248913 107.6796875 52.44921875 C104.97549487 54.25201384 102.2594301 55.65582005 99.3371582 57.06176758 C77.75057493 67.49406694 59.52403762 81.32941498 49.6171875 103.65625 C46.71951327 112.28890449 46.3849243 120.27699583 46.4140625 129.3203125 C46.41119232 131.29657372 46.41119232 131.29657372 46.40826416 133.3127594 C46.40533241 136.08884424 46.4095465 138.86479949 46.41894531 141.64086914 C46.43032757 145.17201045 46.42377585 148.70284719 46.41180038 152.23397732 C46.40277044 155.63777908 46.40912264 159.04150213 46.4140625 162.4453125 C46.40798981 164.32699379 46.40798981 164.32699379 46.40179443 166.24668884 C46.50783662 186.28773125 52.99749876 201.62007481 66.9296875 216.07421875 C72.45280331 221.45790106 78.39140446 226.00462079 84.6796875 230.44921875 C77.05810766 247.0475254 56.03075926 258.53241726 39.69238281 264.73828125 C13.14574319 274.11526022 -16.82516468 273.47523187 -42.3203125 261.44921875 C-43.57521484 260.89814453 -43.57521484 260.89814453 -44.85546875 260.3359375 C-68.76089773 249.31140528 -87.01285118 227.2021791 -96.07421875 202.88671875 C-96.69103516 201.18515625 -96.69103516 201.18515625 -97.3203125 199.44921875 C-97.63871094 198.60359375 -97.95710937 197.75796875 -98.28515625 196.88671875 C-106.97180294 172.68511603 -103.66894499 144.55097691 -93.28125 121.4609375 C-87.34041332 108.95657864 -78.51326598 98.31166305 -69.96142578 87.52685547 C-67.71954515 84.68865193 -65.51870794 81.82125761 -63.3203125 78.94921875 C-59.40499931 73.84841793 -55.46035219 68.77121412 -51.5078125 63.69921875 C-46.91561233 57.80490121 -42.35122887 51.89076872 -37.8203125 45.94921875 C-33.28939393 40.00766589 -28.72476188 34.0937341 -24.1328125 28.19921875 C-17.90540487 20.20594191 -17.90540487 20.20594191 -11.6953125 12.19921875 C-10.93992187 11.2246875 -10.18453125 10.25015625 -9.40625 9.24609375 C-7.21772713 6.44802904 -7.21772713 6.44802904 -5.484375 3.08984375 C-3.3203125 0.44921875 -3.3203125 0.44921875 0 0 Z " transform="translate(646.3203125,490.55078125)" style="fill: #25B597;"/>
  <path d="M0 0 C16.78272236 7.7442125 31.47646292 21.97286404 38.15625 39.26953125 C41.19783737 50.06312891 38.8612358 61.26903981 33.63671875 71.01953125 C16.34046506 97.4925259 -16.15671433 110.51787898 -45.8984375 116.984375 C-89.79061913 125.87307307 -141.11573894 124.40134104 -181.9609375 104.40234375 C-183.31685291 103.43318372 -184.6567644 102.44008664 -185.9609375 101.40234375 C-167.01791196 90.44270051 -147.79921805 79.95993224 -128.63406372 69.39529419 C-116.50882116 62.7111068 -104.40366215 55.99109798 -92.30371094 49.26123047 C-86.6904761 46.13976026 -81.0756212 43.02120685 -75.4609375 39.90234375 C-73.21092982 38.65235757 -70.96092982 37.40235757 -68.7109375 36.15234375 C-55.2109375 28.65234375 -55.2109375 28.65234375 -51.83056641 26.77441406 C-49.59840853 25.53429041 -47.36631138 24.29405746 -45.13427734 23.05371094 C-39.86878679 20.12783923 -34.60268899 17.2030771 -29.33441162 14.28222656 C-26.84957173 12.90448722 -24.36508021 11.52612035 -21.88061523 10.14770508 C-20.12973386 9.17663402 -18.37834985 8.2064694 -16.62695312 7.23632812 C-15.56412109 6.64658203 -14.50128906 6.05683594 -13.40625 5.44921875 C-12.47312988 4.93198242 -11.54000977 4.41474609 -10.57861328 3.88183594 C-8.78762661 2.8695827 -7.0300039 1.79658639 -5.30566406 0.67456055 C-2.9609375 -0.59765625 -2.9609375 -0.59765625 0 0 Z " transform="translate(935.9609375,563.59765625)" style="fill: #25B597;"/>
  <path d="M0 0 C0.70769531 0.60585938 1.41539062 1.21171875 2.14453125 1.8359375 C2.96566406 2.52429688 3.78679687 3.21265625 4.6328125 3.921875 C19.9525226 17.17261059 30.15857103 34.61369561 36.14453125 53.8359375 C36.48355469 54.91488281 36.82257813 55.99382812 37.171875 57.10546875 C40.98011332 71.61889314 40.84422616 89.32978909 37.14453125 103.8359375 C36.72494141 105.51816406 36.72494141 105.51816406 36.296875 107.234375 C31.27637083 125.97488045 22.54191263 141.11517251 10.30859375 155.96484375 C7.02614945 159.94950756 3.89023355 164.03652562 0.76953125 168.1484375 C-2.64178178 172.63109752 -6.05911362 177.10850128 -9.5078125 181.5625 C-10.11302734 182.34488037 -10.71824219 183.12726074 -11.34179688 183.93334961 C-12.54997727 185.48153265 -13.76862282 187.0216108 -14.99804688 188.55297852 C-17.5368839 191.72828592 -19.76052065 194.65686333 -21.671875 198.26171875 C-23.42182736 201.43268506 -24.84594363 202.84297828 -27.85546875 204.8359375 C-30.63720703 205.17724609 -30.63720703 205.17724609 -33.67578125 204.984375 C-35.30700928 204.88527832 -35.30700928 204.88527832 -36.97119141 204.78417969 C-41.96202923 204.30749023 -46.90909088 203.65141513 -51.85546875 202.8359375 C-48.05952667 196.93935319 -44.03308859 191.40671324 -39.54296875 186.0234375 C-34.97153974 180.47006476 -30.55258309 174.84597181 -26.2734375 169.0625 C-23.8994673 165.87093002 -21.45412395 162.73724071 -19.00390625 159.60400391 C-16.58252268 156.50727299 -14.17261773 153.40171207 -11.76416016 150.29492188 C-10.46978195 148.62736275 -9.1724839 146.96206671 -7.87255859 145.29882812 C9.26742879 123.31357039 21.20090369 100.26325988 17.87646484 71.51806641 C15.23025406 53.50362157 7.99060326 38.5483061 -3.85546875 24.8359375 C-4.41621094 24.16304688 -4.97695313 23.49015625 -5.5546875 22.796875 C-18.21158941 8.83283712 -39.71098949 -0.19132259 -58.21777344 -1.30639648 C-82.38984786 -2.20837382 -101.90176994 3.42690261 -120.85546875 18.8359375 C-121.39840576 19.26430908 -121.94134277 19.69268066 -122.50073242 20.1340332 C-127.09120721 23.87542471 -130.55201067 28.01085519 -134.04296875 32.7734375 C-135.1794846 34.29279359 -136.31753714 35.81100128 -137.45703125 37.328125 C-138.02454102 38.08577148 -138.59205078 38.84341797 -139.17675781 39.62402344 C-141.69066926 42.93641984 -144.3002348 46.16791386 -146.91796875 49.3984375 C-151.55448834 55.14186707 -156.0157864 60.99776118 -160.42163086 66.91943359 C-164.1541899 71.9275228 -167.97694047 76.85563495 -171.84960938 81.75585938 C-174.89988078 85.61601525 -177.92196337 89.49600858 -180.91796875 93.3984375 C-181.32966309 93.9346875 -181.74135742 94.4709375 -182.16552734 95.0234375 C-183.39598186 96.62724126 -184.62577042 98.23155389 -185.85546875 99.8359375 C-192.24502031 108.1646067 -198.66834568 116.46580905 -205.12207031 124.74487305 C-205.69280273 125.47746338 -206.26353516 126.21005371 -206.8515625 126.96484375 C-207.35872803 127.61525635 -207.86589355 128.26566895 -208.38842773 128.93579102 C-208.87255127 129.56283936 -209.3566748 130.1898877 -209.85546875 130.8359375 C-210.41242432 131.53452881 -210.96937988 132.23312012 -211.54321289 132.95288086 C-213.04604895 134.72688324 -213.04604895 134.72688324 -212.85546875 136.8359375 C-212.25822998 137.08649902 -211.66099121 137.33706055 -211.0456543 137.59521484 C-182.71754603 149.53966053 -156.46796826 163.91960898 -132.85546875 183.8359375 C-131.91453369 184.62677734 -131.91453369 184.62677734 -130.95458984 185.43359375 C-123.63600984 191.61396697 -116.4443327 197.86816125 -109.85546875 204.8359375 C-113.69755399 207.39732766 -117.32825661 208.04578907 -121.79296875 209.0234375 C-122.60443359 209.21357422 -123.41589844 209.40371094 -124.25195312 209.59960938 C-125.03763672 209.77427734 -125.82332031 209.94894531 -126.6328125 210.12890625 C-127.34687256 210.2889917 -128.06093262 210.44907715 -128.79663086 210.61401367 C-132.76576473 211.04184987 -134.56847218 210.06648876 -137.67578125 207.5703125 C-138.78087219 206.57944197 -139.8821784 205.58434058 -140.98046875 204.5859375 C-170.75668778 178.39816494 -208.4337166 156.60611083 -247.85546875 149.8359375 C-247.85546875 145.55376849 -247.65667924 145.08973909 -245.14453125 141.96484375 C-244.56413086 141.23225342 -243.98373047 140.49966309 -243.38574219 139.74487305 C-242.75700195 138.97054932 -242.12826172 138.19622559 -241.48046875 137.3984375 C-240.18589191 135.77107672 -238.89162271 134.14347116 -237.59765625 132.515625 C-236.95795898 131.71737305 -236.31826172 130.91912109 -235.65917969 130.09667969 C-233.26935628 127.10131359 -230.93204971 124.06800533 -228.60546875 121.0234375 C-227.81140625 119.98960937 -227.01734375 118.95578125 -226.19921875 117.890625 C-225.42578125 116.88257813 -224.65234375 115.87453125 -223.85546875 114.8359375 C-218.2771128 107.56548024 -212.6754227 100.31456169 -207.04296875 93.0859375 C-202.45080881 87.19158819 -197.88638548 81.27748795 -193.35546875 75.3359375 C-188.23775794 68.62490334 -183.07110587 61.95348307 -177.88378906 55.29614258 C-171.98593225 47.72557427 -166.13559421 40.11926749 -160.30078125 32.5 C-155.22946287 25.88268857 -150.136462 19.28807504 -144.85546875 12.8359375 C-144.27925781 12.09988281 -143.70304688 11.36382812 -143.109375 10.60546875 C-137.0947832 3.29741635 -129.60232855 -1.85473577 -121.85546875 -7.1640625 C-120.60636719 -8.04771484 -120.60636719 -8.04771484 -119.33203125 -8.94921875 C-83.35799161 -32.61635009 -32.48139549 -26.63594955 0 0 Z " transform="translate(906.85546875,325.1640625)" style="fill: #27B598;"/>
  <path d="M0 0 C-2.52681834 2.86099653 -5.34964903 4.44907185 -8.6875 6.265625 C-9.53592468 6.73044281 -9.53592468 6.73044281 -10.40148926 7.20465088 C-12.26513998 8.22445704 -14.13258222 9.23711108 -16 10.25 C-17.31347785 10.96750101 -18.62662426 11.68560909 -19.93945312 12.40429688 C-21.96407272 13.51253305 -23.98889796 14.62037397 -26.01477051 15.72631836 C-32.52923424 19.28292887 -39.01615843 22.88784945 -45.5 26.5 C-54.78221646 31.66305451 -64.07401838 36.80835781 -73.375 41.9375 C-73.97600525 42.26894012 -74.5770105 42.60038025 -75.19622803 42.94186401 C-80.07484104 45.63208462 -84.95403497 48.32125099 -89.83325195 51.01037598 C-113.43618638 64.01918658 -137.02192502 77.05807515 -160.51855469 90.25830078 C-162.4098128 91.31969504 -164.30329313 92.37714157 -166.19921875 93.43017578 C-168.1503113 94.52375363 -170.08967774 95.63840596 -172.01953125 96.76904297 C-173.47939453 97.60846436 -173.47939453 97.60846436 -174.96875 98.46484375 C-175.83951172 98.97523193 -176.71027344 99.48562012 -177.60742188 100.01147461 C-180 101 -180 101 -182.17089844 100.76782227 C-186.83751348 98.80886547 -190.42137247 94.47083755 -194 91 C-194.7321875 90.29359375 -195.464375 89.5871875 -196.21875 88.859375 C-205.16669375 79.56727957 -209.48904409 68.33117401 -209.33203125 55.5703125 C-208.04322586 41.71186396 -199.06232202 29.68132794 -188.60546875 20.98828125 C-164.40693078 2.52193069 -135.22311494 -7.90988024 -105 -11 C-104.24074219 -11.09063721 -103.48148438 -11.18127441 -102.69921875 -11.2746582 C-69.22859137 -14.90781139 -31.26190608 -13.56405016 0 0 Z " transform="translate(916,555)" style="fill: #25B597;"/>
  <path d="M0 0 C0.9075 0.78375 1.815 1.5675 2.75 2.375 C3.39453125 2.92285156 4.0390625 3.47070312 4.703125 4.03515625 C6.35119101 5.44498142 7.98503802 6.87149322 9.609375 8.30859375 C29.86421165 25.85366171 55.43171458 36.08679462 81.5 41.48242188 C83.18479328 41.83122673 84.86711257 42.19217449 86.546875 42.56445312 C117.59861639 49.26055233 153.00883214 48.67857005 184 42 C184.76038574 41.84515137 185.52077148 41.69030273 186.30419922 41.53076172 C190.93644857 40.57159612 195.47350906 39.37547681 200 38 C201.20100342 37.63865967 201.20100342 37.63865967 202.42626953 37.27001953 C224.13393982 30.63542743 244.217801 21.82447694 260.8515625 6.0078125 C263.1394649 3.86966371 265.53460199 1.92906581 268 0 C268.68225261 13.87246977 266.78670113 24.78163042 258 36 C257.42507813 36.73863281 256.85015625 37.47726562 256.2578125 38.23828125 C237.84765511 60.35338732 204.71754631 72.67901369 177 77 C175.84886719 77.18949219 174.69773437 77.37898437 173.51171875 77.57421875 C124.39008911 85.14378135 67.59606572 80.46615837 26.0625 50.9375 C24.36465484 49.6384102 22.67621075 48.32688735 21 47 C20.29488281 46.47148438 19.58976563 45.94296875 18.86328125 45.3984375 C9.07630674 37.59193131 2.10563559 26.34733253 0 14 C-0.27514084 9.30861545 -0.25319989 4.69123132 0 0 Z " transform="translate(707,653)" style="fill: #26B597;"/>
</svg>